<svg width="165" height="93" viewBox="0 0 165 93" fill="none" xmlns="http://www.w3.org/2000/svg">
<path d="M0 46.3001L47.5066 0C47.5066 0 62.5631 9.74237 74.7818 24.2131C66.9907 14.8262 47.6396 1.45342 47.6396 1.45342C47.6396 1.45342 18.1032 32.0134 4.00956 46.0335C26.2807 61.8181 48.4631 91.5402 48.4631 91.5402L74.066 67.1557C74.066 67.1557 56.3492 84.5524 48.3491 93C26.496 64.5028 0.0316712 46.3001 0.0316712 46.3001" fill="#BFB6AD"/>
<path d="M58.1924 41.2927C57.1916 37.6369 55.2597 36.6404 52.612 36.6404C47.8106 36.6404 45.5683 40.9182 45.5683 45.4118C45.5683 51.1937 48.3997 55.0653 52.536 55.0653C55.6524 55.0653 57.2423 53.3453 58.8702 49.9878L59.9913 50.2036C59.5742 52.025 59.0432 53.8184 58.4014 55.573C56.4956 56.0719 54.542 56.3655 52.574 56.4489C44.2508 56.4489 40.9443 51.1429 40.9443 46.1162C40.9443 39.9598 45.7773 35.2124 53.1314 35.2124C55.0283 35.2506 56.9133 35.5235 58.7435 36.0248C58.9969 37.7448 59.1172 39.1157 59.3072 41.1023L58.1924 41.2927Z" fill="#0084A9"/>
<path d="M71.6274 36.6404C68.3843 36.6404 66.1103 39.8519 66.1103 45.2912C66.1103 50.7304 68.2576 55.0653 72.4065 55.0653C75.6116 55.0653 77.7969 52.3171 77.7969 46.5351C77.7969 40.3216 75.6116 36.6404 71.6274 36.6404ZM82.3956 45.526C82.3956 52.114 77.8476 56.4552 71.6781 56.4552C65.5085 56.4552 61.48 51.8665 61.48 46.148C61.48 41.1213 64.8815 35.2188 72.4255 35.2188C77.9996 35.2188 82.3956 39.4648 82.3956 45.526Z" fill="#0084A9"/>
<path d="M94.4749 51.2254C94.4749 54.5956 94.7219 54.8114 97.5279 55.0018V55.9982H87.4945V55.0018C90.1739 54.8114 90.4209 54.5956 90.4209 51.2254V37.1037H89.6418C87.1081 37.1037 86.2784 37.4845 85.8096 38.0113C85.3409 38.5381 85.0305 39.3251 84.6568 40.8864H83.5356C83.656 38.665 83.846 36.5135 83.9094 34.9204H84.4984C84.6743 35.2072 84.9317 35.4347 85.2376 35.5738C85.5434 35.7129 85.8838 35.7572 86.215 35.7011H98.7441C99.0725 35.7245 99.4015 35.6654 99.7013 35.529C100.001 35.3927 100.262 35.1835 100.461 34.9204H101.05C101.081 36.2342 101.24 38.665 101.392 40.7912L100.271 40.8864C99.9603 39.1982 99.6372 38.3477 99.1178 37.8273C98.5984 37.3068 97.5913 37.1037 95.7544 37.1037H94.4875L94.4749 51.2254Z" fill="#0084A9"/>
<path d="M114.009 51.2254C114.009 54.5956 114.263 54.8114 117.069 55.0018V55.9982H107.029V55.0018C109.709 54.8114 109.962 54.5956 109.962 51.2254V37.1037H109.157C106.624 37.1037 105.788 37.4845 105.319 38.0113C104.85 38.5381 104.54 39.3251 104.166 40.8864H103.045C103.172 38.665 103.355 36.5135 103.419 34.9204H104.014C104.19 35.2072 104.447 35.4347 104.753 35.5738C105.059 35.7129 105.399 35.7572 105.731 35.7011H118.26C118.587 35.7252 118.916 35.6663 119.214 35.5299C119.513 35.3934 119.773 35.1839 119.97 34.9204H120.565C120.565 36.2342 120.749 38.665 120.907 40.7912L119.786 40.8864C119.47 39.1982 119.153 38.3477 118.633 37.8273C118.114 37.3068 117.107 37.1037 115.264 37.1037H113.997L114.009 51.2254Z" fill="#0084A9"/>
<path d="M134.146 51.225C134.146 54.5952 134.393 54.811 137.136 55.0014V55.9978H127.223V55.0014C129.845 54.811 130.092 54.5952 130.092 51.225V48.3816C130.113 47.7581 129.962 47.1409 129.655 46.5982C128.812 44.7893 127.66 42.8218 125.664 39.2613C124.359 36.9193 124.138 36.8875 122.548 36.7225V35.7261H131.118V36.7225L129.851 36.9129C129.072 37.0399 129.009 37.2557 129.509 38.2521C130.725 40.6258 131.967 43.0313 133.215 45.3161C134.184 43.5009 135.584 40.4735 136.489 38.4108C137.022 37.2239 136.863 36.9764 135.742 36.8495L134.558 36.7225V35.7261H141.817V36.7225C139.885 36.9129 139.606 37.1922 138.295 39.3501C137.009 41.3449 135.834 43.4086 134.773 45.5319C134.292 46.2867 134.07 47.1779 134.139 48.0706L134.146 51.225Z" fill="#0084A9"/>
<path d="M162.225 56.22H160.325L147.986 40.9559H147.923V47.4233C147.892 49.4167 147.995 51.4099 148.233 53.3893C148.385 54.4809 149.171 54.8871 151.223 54.9823V55.9788H143.495V54.9823C145.053 54.9189 145.801 54.4809 145.959 53.3893C146.194 51.4096 146.297 49.4166 146.27 47.4233V41.2415C146.27 39.2422 146.27 38.4933 145.706 37.7444C145.142 36.9954 144.338 36.7733 143.058 36.6781V35.6816H148.48L160.515 49.7335H160.579V44.2562C160.609 42.2626 160.503 40.2693 160.262 38.2902C160.11 37.1985 159.331 36.7923 157.272 36.6971V35.7007H165V36.6971C163.442 36.7606 162.694 37.1985 162.542 38.2902C162.301 40.2693 162.195 42.2626 162.225 44.2562V56.22Z" fill="#0084A9"/>
<path d="M19.3383 46.0782L49.8439 14.1854L59.1298 22.5378L29.6567 46.313L47.8866 60.6949L32.0321 46.2749L59.6429 22.3601L49.6222 12.9224L16.5322 45.837L49.7425 79.9575L52.6689 77.0761L63.1394 66.4324L49.8755 78.7326L19.3383 46.0782Z" fill="#BFB6AD"/>
<path d="M47.9941 65.7531H47.0123C46.8914 65.086 46.7025 64.4331 46.4486 63.8046H43.7439C43.4864 64.4373 43.2933 65.0943 43.1674 65.7658H42.23C42.5788 64.752 42.9784 63.7564 43.4272 62.7828C43.9059 61.7867 44.3082 60.7555 44.6306 59.6982H45.7075C46.0143 60.7406 46.3975 61.7589 46.854 62.7447C47.3025 63.7201 47.6834 64.7253 47.9941 65.7531ZM46.2142 63.2144C45.4858 61.3865 45.1247 60.4218 45.1247 60.3075H45.074C45.074 60.4027 44.694 61.3675 43.9402 63.2144H46.2142Z" fill="#BFB6AD"/>
<path d="M52.6691 65.7472H51.9787C51.9526 65.607 51.9399 65.4646 51.9407 65.3219H51.89C51.6989 65.5076 51.4711 65.6511 51.2212 65.7429C50.9714 65.8347 50.705 65.873 50.4394 65.8551C50.1719 65.8665 49.9054 65.8151 49.6612 65.7049C49.417 65.5947 49.202 65.4288 49.0333 65.2204C48.6804 64.7829 48.4941 64.2341 48.5075 63.6718C48.4947 63.0303 48.7002 62.4035 49.0903 61.8947C49.2838 61.6493 49.5332 61.4538 49.8174 61.3247C50.1017 61.1955 50.4127 61.1363 50.7245 61.1521C51.1107 61.1162 51.4965 61.2247 51.8076 61.4567H51.8456C51.8456 60.6888 51.8456 59.9335 51.776 59.1909L52.6628 59.1592C52.5994 59.9462 52.5741 60.9807 52.5741 62.2564C52.5741 63.5321 52.6057 64.7253 52.6691 65.7472ZM51.9217 64.8332C51.9217 63.8622 51.9217 62.9292 51.8456 62.0406C51.5779 61.8279 51.2433 61.7177 50.9018 61.7296C50.6781 61.7145 50.454 61.754 50.2489 61.8446C50.0437 61.9352 49.8635 62.0744 49.7237 62.2501C49.4537 62.6357 49.318 63.0996 49.3373 63.5702C49.3224 63.998 49.4518 64.4184 49.7047 64.7634C49.8238 64.9213 49.9795 65.0477 50.1582 65.1317C50.337 65.2158 50.5335 65.2549 50.7308 65.2458C50.9472 65.2655 51.1652 65.2389 51.3705 65.1678C51.5758 65.0967 51.7637 64.9826 51.9217 64.8332Z" fill="#BFB6AD"/>
<path d="M57.6601 61.3296C57.4098 62.0877 57.094 62.8225 56.7163 63.5256C56.3329 64.2362 56.0189 64.9822 55.7788 65.7533H55.1454C54.9528 64.9657 54.6746 64.2016 54.3156 63.4748C53.9893 62.78 53.7121 62.0632 53.4858 61.3296H54.3916C54.5474 61.9383 54.7595 62.5311 55.0251 63.1003C55.2904 63.6719 55.5024 64.2668 55.6585 64.8775H55.6965C55.8363 64.2899 56.0293 63.7163 56.2729 63.1638C56.5345 62.5771 56.7259 61.9614 56.843 61.3296H57.6601Z" fill="#BFB6AD"/>
<path d="M62.7278 63.4052C62.7478 63.7456 62.6974 64.0866 62.5796 64.4066C62.4619 64.7266 62.2795 65.0188 62.0437 65.2648C61.8348 65.48 61.5846 65.6506 61.308 65.7663C61.0315 65.8819 60.7345 65.9402 60.4348 65.9375C60.1596 65.9426 59.8861 65.8924 59.6304 65.7899C59.3748 65.6874 59.1422 65.5348 58.9463 65.3409C58.7304 65.1237 58.5625 64.8634 58.4533 64.5769C58.3442 64.2905 58.2964 63.9842 58.3129 63.6781C58.2905 63.3307 58.3397 62.9824 58.4574 62.6548C58.5751 62.3272 58.7587 62.0274 58.997 61.774C59.2065 61.5574 59.4576 61.3856 59.7352 61.2689C60.0128 61.1522 60.3111 61.093 60.6122 61.0949C60.8869 61.0912 61.1596 61.1427 61.4141 61.2462C61.6687 61.3498 61.9 61.5033 62.0944 61.6979C62.3144 61.9214 62.4846 62.1892 62.5938 62.4835C62.703 62.7778 62.7487 63.0919 62.7278 63.4052ZM61.9234 63.5702C61.9251 63.1205 61.7975 62.6798 61.556 62.3008C61.4416 62.1327 61.2886 61.9945 61.1098 61.8981C60.931 61.8016 60.7316 61.7496 60.5286 61.7465C60.3255 61.7434 60.1247 61.7893 59.943 61.8802C59.7613 61.9711 59.6042 62.1045 59.4847 62.2691C59.2358 62.6444 59.1096 63.088 59.1236 63.5384C59.1219 63.9881 59.2495 64.4288 59.491 64.8078C59.608 64.9741 59.7631 65.1098 59.9433 65.2035C60.1236 65.2972 60.3236 65.3461 60.5267 65.3461C60.7297 65.3461 60.9298 65.2972 61.11 65.2035C61.2903 65.1098 61.4454 64.9741 61.5623 64.8078C61.8061 64.442 61.9321 64.01 61.9234 63.5702Z" fill="#BFB6AD"/>
<path d="M67.1804 65.0742L67.1361 65.7089C66.8226 65.8676 66.4734 65.942 66.1226 65.9247C65.787 65.9477 65.4503 65.9003 65.134 65.7855C64.8177 65.6708 64.5288 65.4912 64.2857 65.2583C64.0796 65.0457 63.9176 64.7944 63.8089 64.5188C63.7002 64.2432 63.6469 63.9488 63.6522 63.6525C63.6408 63.0129 63.8822 62.3947 64.3237 61.9326C64.5502 61.6936 64.825 61.506 65.1298 61.3823C65.4347 61.2586 65.7623 61.2017 66.0909 61.2154C66.3969 61.2066 66.7024 61.2451 66.9967 61.3296L66.87 62.0595C66.554 61.9412 66.2193 61.881 65.8819 61.8818C65.6835 61.8732 65.4858 61.9099 65.3037 61.9891C65.1215 62.0682 64.9597 62.1878 64.8304 62.3388C64.564 62.6633 64.4245 63.0739 64.4377 63.4939C64.4197 63.9614 64.5857 64.4173 64.9001 64.7632C65.0725 64.9345 65.2788 65.0676 65.5058 65.154C65.7327 65.2403 65.9752 65.278 66.2176 65.2646C66.5453 65.2422 66.8688 65.1782 67.1804 65.0742Z" fill="#BFB6AD"/>
<path d="M71.5954 65.7533H70.8606C70.8289 65.6116 70.8119 65.467 70.8099 65.3217H70.7593C70.3255 65.6887 69.7678 65.875 69.2011 65.8422C68.8679 65.8503 68.5425 65.7402 68.2826 65.5312C68.1521 65.4219 68.0491 65.2834 67.982 65.1268C67.9149 64.9702 67.8855 64.8 67.8962 64.6299C67.8957 64.4003 67.9536 64.1744 68.0644 63.9734C68.1753 63.7724 68.3354 63.603 68.5296 63.4812C69.2222 63.122 70.0004 62.9617 70.7783 63.0178C70.7853 62.9334 70.7853 62.8485 70.7783 62.764C70.7976 62.6215 70.7798 62.4765 70.7265 62.343C70.6732 62.2095 70.5863 62.0921 70.4742 62.0024C70.1886 61.8569 69.8692 61.7912 69.5494 61.812C69.0667 61.8108 68.5858 61.8705 68.1179 61.9897L68.1939 61.355C68.7161 61.2131 69.2555 61.1447 69.7965 61.1519C70.2446 61.126 70.6891 61.2462 71.0633 61.4946C71.2258 61.6392 71.3515 61.8206 71.4297 62.0238C71.5079 62.227 71.5365 62.4459 71.513 62.6624C71.513 62.8084 71.513 63.075 71.513 63.4558C71.513 63.8366 71.513 64.0905 71.513 64.2237C71.4901 64.7351 71.5177 65.2474 71.5954 65.7533ZM70.7719 64.8521C70.7719 64.3761 70.7719 63.9508 70.7719 63.5827C70.3246 63.5681 69.8773 63.6129 69.4418 63.716C69.2303 63.7492 69.0375 63.857 68.8982 64.0198C68.7589 64.1827 68.6821 64.39 68.6816 64.6045C68.6816 65.0234 68.9794 65.2392 69.5748 65.2392C70.0066 65.2538 70.43 65.1168 70.7719 64.8521Z" fill="#BFB6AD"/>
<path d="M75.3199 65.1121L75.2692 65.7151C75.0465 65.7998 74.8107 65.8449 74.5724 65.8484C74.3622 65.8751 74.1487 65.8503 73.9502 65.7763C73.7516 65.7022 73.5739 65.581 73.4323 65.4231C73.1819 64.9569 73.0739 64.4271 73.1219 63.8999C73.1219 63.4239 73.1219 62.8019 73.1219 62.0403C72.9445 62.0403 72.6912 62.0403 72.3555 62.0403V61.3675C72.6468 61.3675 72.9129 61.3675 73.1472 61.3675C73.1472 61.1834 73.1472 60.7328 73.1916 60.041L73.92 59.9648C73.8693 60.5995 73.844 61.0882 73.844 61.3675C74.148 61.3675 74.5914 61.3675 75.1805 61.3231V62.0149C74.6231 62.0149 74.1734 62.0149 73.8377 62.0149C73.8377 62.4845 73.8377 63.0113 73.8377 63.5952C73.798 64.0287 73.8677 64.4652 74.0404 64.8646C74.1284 64.9754 74.2434 65.0616 74.3743 65.1149C74.5052 65.1683 74.6476 65.187 74.7878 65.1692C74.9667 65.1691 75.145 65.1499 75.3199 65.1121Z" fill="#BFB6AD"/>
<path d="M80.0199 63.0178C80.0199 63.1511 80.0199 63.3288 80.0199 63.5573L76.8528 63.6144C76.8709 64.048 77.06 64.4566 77.3785 64.7505C77.5482 64.9085 77.7476 65.0309 77.9652 65.1105C78.1828 65.1901 78.4141 65.2252 78.6454 65.2138C79.0924 65.2168 79.5377 65.1592 79.9692 65.0425L79.8932 65.6771C79.4687 65.8174 79.0224 65.8797 78.5757 65.8612C78.2415 65.8873 77.9055 65.8445 77.5884 65.7353C77.2714 65.6261 76.98 65.453 76.7324 65.2265C76.5256 65.0132 76.3632 64.7608 76.2544 64.4841C76.1457 64.2074 76.0929 63.9118 76.099 63.6144C76.083 62.9813 76.2867 62.3621 76.6754 61.8627C76.8589 61.6257 77.0957 61.4354 77.3665 61.3075C77.6373 61.1796 77.9344 61.1175 78.2337 61.1265C78.4858 61.1094 78.7387 61.1483 78.9741 61.2405C79.2095 61.3326 79.4217 61.4758 79.5955 61.6596C79.899 62.0446 80.0501 62.5282 80.0199 63.0178ZM79.2408 63.0178C79.2408 62.1483 78.8798 61.7104 78.1513 61.7104C77.4229 61.7104 76.9668 62.1674 76.8338 63.075L79.2408 63.0178Z" fill="#BFB6AD"/>
<path d="M85.0178 65.7532H84.1753C84.2387 64.9345 84.2767 64.0459 84.2767 63.0812C84.2991 62.9059 84.2848 62.7279 84.2346 62.5585C84.1844 62.3891 84.0995 62.2321 83.9853 62.0974C83.7516 61.9084 83.455 61.8154 83.1555 61.8372C82.7053 61.8395 82.2719 62.0091 81.9393 62.3132C81.9393 63.3731 81.9393 64.5219 81.9393 65.7532H81.0969C81.1476 64.6996 81.1729 63.9317 81.1729 63.462C81.1767 62.7504 81.1088 62.0401 80.9702 61.3422L81.7873 61.2279L81.876 61.7991H81.9203C82.3122 61.4048 82.841 61.1774 83.3962 61.1644C83.8208 61.1371 84.2417 61.2582 84.587 61.5072C84.7447 61.6652 84.8648 61.8569 84.9382 62.0679C85.0117 62.2789 85.0367 62.5037 85.0114 62.7258C85.0114 62.7892 85.0114 62.9035 85.0114 63.0748C85.0114 63.2462 85.0114 63.3668 85.0114 63.4239C85.003 63.9486 85.0051 64.725 85.0178 65.7532Z" fill="#BFB6AD"/>
<path d="M89.9141 63.0435L89.8634 63.6464L87.8682 63.7099L87.9125 63.1133L89.9141 63.0435Z" fill="#BFB6AD"/>
<path d="M97.9712 65.7531H96.9894C96.8597 65.0818 96.6646 64.4249 96.4066 63.7919H93.7209C93.4601 64.4234 93.2669 65.0808 93.1445 65.7531H92.207C92.5559 64.7393 92.9555 63.7437 93.4042 62.7701C93.8794 61.7732 94.2796 60.7422 94.6014 59.6855H95.6845C95.9907 60.7273 96.3718 61.7454 96.8247 62.732C97.2773 63.7108 97.6604 64.7203 97.9712 65.7531ZM96.1913 63.2144C95.4628 61.3865 95.0954 60.4218 95.0954 60.3075H95.0448C95.0448 60.4027 94.671 61.3675 93.9173 63.2144H96.1913Z" fill="#BFB6AD"/>
<path d="M102.304 61.3296C102.053 62.0877 101.738 62.8225 101.36 63.5256C100.976 64.2368 100.66 64.9827 100.416 65.7533H99.7826C99.5867 64.9667 99.3085 64.203 98.9528 63.4748C98.6232 62.7815 98.3458 62.0644 98.123 61.3296H99.0225C99.1802 61.9377 99.3922 62.5303 99.6559 63.1003C99.9198 63.6725 100.132 64.2673 100.289 64.8775C100.429 64.2906 100.619 63.7171 100.859 63.1638C101.125 62.578 101.318 61.9621 101.436 61.3296H102.304Z" fill="#BFB6AD"/>
<path d="M107.365 63.4051C107.385 63.7456 107.335 64.0866 107.217 64.4066C107.099 64.7266 106.917 65.0187 106.681 65.2648C106.473 65.4806 106.222 65.6516 105.946 65.7673C105.669 65.883 105.372 65.9409 105.072 65.9375C104.798 65.9424 104.525 65.8921 104.271 65.7896C104.016 65.6872 103.785 65.5346 103.59 65.3409C103.373 65.1246 103.204 64.8645 103.095 64.5778C102.985 64.2911 102.938 63.9844 102.956 63.6781C102.934 63.3307 102.983 62.9824 103.101 62.6548C103.219 62.3272 103.402 62.0274 103.641 61.774C103.849 61.5579 104.099 61.3863 104.376 61.2696C104.652 61.1529 104.949 61.0935 105.249 61.0949C105.524 61.0912 105.797 61.1427 106.051 61.2462C106.306 61.3498 106.537 61.5033 106.732 61.6979C106.953 61.9205 107.124 62.1881 107.233 62.4826C107.343 62.7771 107.388 63.0917 107.365 63.4051ZM106.561 63.5702C106.565 63.1211 106.439 62.6803 106.2 62.3008C106.085 62.1327 105.932 61.9945 105.753 61.8981C105.574 61.8016 105.375 61.7496 105.172 61.7465C104.969 61.7434 104.768 61.7893 104.587 61.8802C104.405 61.9711 104.248 62.1045 104.128 62.2691C103.879 62.6444 103.753 63.088 103.767 63.5384C103.763 63.9885 103.89 64.43 104.135 64.8078C104.252 64.9741 104.407 65.1098 104.587 65.2035C104.767 65.2972 104.967 65.3461 105.17 65.3461C105.373 65.3461 105.573 65.2972 105.754 65.2035C105.934 65.1098 106.089 64.9741 106.206 64.8078C106.445 64.44 106.568 64.009 106.561 63.5702Z" fill="#BFB6AD"/>
<path d="M111.824 65.074L111.774 65.7087C111.463 65.8677 111.115 65.9421 110.767 65.9245C110.43 65.9476 110.092 65.9003 109.775 65.7855C109.458 65.6708 109.168 65.4912 108.923 65.2581C108.717 65.0455 108.555 64.7942 108.447 64.5186C108.338 64.243 108.285 63.9486 108.29 63.6523C108.282 63.0133 108.523 62.3963 108.961 61.9324C109.19 61.6939 109.466 61.5067 109.771 61.3831C110.077 61.2595 110.405 61.2022 110.735 61.2152C111.039 61.2063 111.342 61.2448 111.634 61.3294L111.514 62.0593C111.196 61.9416 110.859 61.8814 110.52 61.8816C110.321 61.8735 110.124 61.9104 109.942 61.9895C109.76 62.0686 109.598 62.188 109.468 62.3386C109.203 62.6638 109.066 63.0744 109.082 63.4937C109.064 63.9612 109.23 64.4171 109.544 64.763C109.716 64.9349 109.922 65.0685 110.149 65.1549C110.376 65.2413 110.619 65.2786 110.862 65.2644C111.189 65.2409 111.513 65.177 111.824 65.074Z" fill="#BFB6AD"/>
<path d="M116.233 65.7531H115.504C115.467 65.6122 115.448 65.4672 115.447 65.3215H115.403C114.969 65.6885 114.411 65.8748 113.845 65.842C113.511 65.8512 113.186 65.741 112.926 65.531C112.796 65.4217 112.693 65.2832 112.626 65.1266C112.558 64.97 112.529 64.7998 112.54 64.6297C112.534 64.4027 112.586 64.1781 112.692 63.977C112.797 63.776 112.952 63.6052 113.142 63.481C113.834 63.1218 114.612 62.9615 115.39 63.0176C115.39 62.9478 115.39 62.859 115.39 62.7638C115.409 62.6213 115.392 62.4763 115.338 62.3428C115.285 62.2093 115.198 62.0919 115.086 62.0021C114.8 61.8567 114.481 61.791 114.161 61.8117C113.676 61.8105 113.193 61.8703 112.723 61.9894L112.806 61.3548C113.328 61.2124 113.867 61.1441 114.408 61.1517C114.856 61.1267 115.301 61.2469 115.675 61.4944C115.836 61.6399 115.961 61.8215 116.039 62.0244C116.118 62.2273 116.147 62.4458 116.125 62.6622C116.125 62.8082 116.125 63.0748 116.125 63.4556C116.125 63.8364 116.125 64.0903 116.125 64.2235C116.114 64.7356 116.15 65.2477 116.233 65.7531ZM115.409 64.8519C115.409 64.378 115.409 63.9548 115.409 63.5825C114.962 63.5679 114.515 63.6127 114.079 63.7158C113.866 63.7476 113.672 63.8548 113.531 64.0178C113.391 64.1808 113.313 64.3889 113.313 64.6043C113.313 65.0232 113.61 65.239 114.206 65.239C114.64 65.2561 115.066 65.119 115.409 64.8519Z" fill="#BFB6AD"/>
<path d="M119.963 65.1121L119.925 65.7087C119.705 65.7934 119.471 65.8385 119.235 65.842C119.024 65.8676 118.81 65.8424 118.61 65.7684C118.411 65.6945 118.232 65.5739 118.089 65.4168C117.844 64.9485 117.739 64.4199 117.784 63.8935C117.784 63.4175 117.784 62.7955 117.784 62.0339C117.613 62.0339 117.354 62.0339 117.018 62.0339L117.05 61.3611C117.341 61.3611 117.607 61.3611 117.835 61.3611C117.835 61.1771 117.835 60.7265 117.886 60.0347L118.614 59.9585C118.564 60.5932 118.538 61.0819 118.538 61.3611C118.836 61.3611 119.286 61.3611 119.875 61.3167L119.843 62.0085C119.286 62.0085 118.836 62.0085 118.5 62.0085C118.5 62.4782 118.5 63.005 118.5 63.5889C118.464 64.0222 118.534 64.4579 118.703 64.8582C118.792 64.9691 118.909 65.0552 119.04 65.1085C119.172 65.1618 119.316 65.1805 119.457 65.1629C119.627 65.1631 119.797 65.146 119.963 65.1121Z" fill="#BFB6AD"/>
<path d="M123.79 64.4904C123.79 65.398 123.207 65.8486 122.054 65.8486C121.573 65.8519 121.093 65.8008 120.623 65.6963L120.762 65.0109C121.18 65.1708 121.625 65.2505 122.073 65.2457C122.751 65.2457 123.093 65.0553 123.093 64.6681C123.095 64.5809 123.075 64.4944 123.036 64.4168C122.996 64.3391 122.937 64.2728 122.865 64.2239C122.632 64.0694 122.381 63.9437 122.117 63.8494C121.775 63.7313 121.453 63.5623 121.161 63.348C121.026 63.2478 120.917 63.1177 120.841 62.9679C120.765 62.8182 120.725 62.6528 120.724 62.4848C120.722 62.3129 120.757 62.1426 120.826 61.9851C120.895 61.8275 120.996 61.6864 121.123 61.5709C121.464 61.2911 121.9 61.1546 122.339 61.1901C122.766 61.1791 123.192 61.2261 123.606 61.3297L123.46 61.9961C123.09 61.8577 122.696 61.791 122.301 61.7994C121.706 61.7994 121.408 61.9707 121.408 62.3135C121.405 62.3949 121.421 62.4759 121.455 62.5498C121.489 62.6237 121.54 62.6885 121.604 62.7387C121.849 62.8999 122.113 63.03 122.39 63.1258C122.719 63.2419 123.031 63.4043 123.315 63.6082C123.458 63.7073 123.575 63.8389 123.658 63.9922C123.74 64.1455 123.786 64.3162 123.79 64.4904Z" fill="#BFB6AD"/>
<path d="M128.502 63.0435L128.445 63.6464L126.456 63.7099L126.5 63.1133L128.502 63.0435Z" fill="#BFB6AD"/>
<path d="M135.299 65.074V65.7595H131.638C131.676 64.9915 131.695 63.9316 131.695 62.5861C131.695 61.4182 131.695 60.4535 131.638 59.7046H132.505C132.467 60.3393 132.448 61.2913 132.448 62.5861C132.448 63.646 132.448 64.4901 132.398 65.1248C133.304 65.1184 134.279 65.074 135.299 65.074Z" fill="#BFB6AD"/>
<path d="M139.511 65.7536H138.782C138.746 65.6126 138.727 65.4676 138.725 65.322H138.675C138.241 65.689 137.683 65.8752 137.117 65.8424C136.783 65.8506 136.458 65.7404 136.198 65.5314C136.069 65.4212 135.967 65.2825 135.9 65.1261C135.833 64.9698 135.802 64.8001 135.812 64.6302C135.81 64.4003 135.867 64.1739 135.978 63.9727C136.089 63.7715 136.25 63.6023 136.445 63.4814C137.135 63.1212 137.912 62.9608 138.687 63.0181C138.694 62.9336 138.694 62.8487 138.687 62.7642C138.707 62.6217 138.689 62.4767 138.636 62.3432C138.582 62.2097 138.495 62.0924 138.383 62.0026C138.1 61.8571 137.783 61.7913 137.465 61.8122C136.98 61.8107 136.497 61.8704 136.027 61.9899L136.103 61.3552C136.625 61.2137 137.165 61.1454 137.706 61.1521C138.154 61.1253 138.599 61.2456 138.972 61.4948C139.136 61.6388 139.263 61.82 139.342 62.0231C139.422 62.2263 139.451 62.4456 139.429 62.6627C139.429 62.8086 139.429 63.0752 139.429 63.456C139.429 63.8368 139.429 64.0907 139.429 64.224C139.409 64.7353 139.436 65.2473 139.511 65.7536ZM138.687 64.8523C138.687 64.3763 138.687 63.9511 138.687 63.5829C138.24 63.5683 137.793 63.6131 137.357 63.7162C137.146 63.7495 136.953 63.8572 136.814 64.0201C136.674 64.1829 136.598 64.3903 136.597 64.6048C136.597 65.0237 136.895 65.2395 137.49 65.2395C137.922 65.2551 138.346 65.118 138.687 64.8523Z" fill="#BFB6AD"/>
<path d="M147.163 61.3296C146.967 62.0833 146.7 62.8165 146.365 63.5192C146.02 64.2335 145.753 64.9824 145.566 65.7533H144.933C144.823 65.286 144.666 64.831 144.464 64.3951C144.084 63.4304 143.831 62.6751 143.647 62.1293H143.609C143.463 62.6561 143.21 63.3986 142.849 64.4014C142.666 64.8385 142.522 65.2909 142.418 65.7533H141.785C141.597 64.9867 141.345 64.2372 141.031 63.5129C140.726 62.8051 140.474 62.0753 140.277 61.3296H141.101C141.231 61.9344 141.414 62.5268 141.646 63.1003C141.88 63.6752 142.062 64.2699 142.19 64.8775H142.241C142.347 64.2424 142.534 63.6237 142.798 63.0369C143.04 62.4875 143.226 61.9156 143.356 61.3296H144.148C144.294 61.9388 144.488 62.5353 144.73 63.113C144.97 63.6853 145.164 64.2752 145.313 64.8775H145.357C145.481 64.2923 145.662 63.7205 145.896 63.1702C146.132 62.5886 146.3 61.9816 146.396 61.3613L147.163 61.3296Z" fill="#BFB6AD"/>
<path d="M151.597 61.3296C151.438 61.9897 151.202 62.6288 150.894 63.2336C150.502 64.071 150.168 64.9341 149.893 65.8168C149.79 66.3649 149.588 66.8896 149.298 67.3654C149.123 67.5332 148.915 67.6606 148.686 67.7385C148.457 67.8164 148.214 67.8428 147.974 67.816L147.936 67.1814C148.116 67.1858 148.296 67.1526 148.462 67.0837C148.629 67.0149 148.78 66.912 148.905 66.7815C149.033 66.6516 149.134 66.4968 149.2 66.3265C149.267 66.1562 149.298 65.9741 149.291 65.7914C149.126 64.9336 148.838 64.1042 148.436 63.3288C147.866 62.0341 147.581 61.374 147.581 61.3486H148.544C148.708 61.9235 148.902 62.4892 149.127 63.0432C149.396 63.653 149.593 64.292 149.716 64.9473H149.76C149.865 64.3481 150.031 63.7612 150.254 63.1955C150.496 62.5834 150.662 61.944 150.748 61.2915L151.597 61.3296Z" fill="#BFB6AD"/>
<path d="M156.227 63.0177C156.227 63.151 156.227 63.3287 156.227 63.5572L153.06 63.6143C153.081 64.0472 153.269 64.4548 153.586 64.7504C153.755 64.9084 153.955 65.0308 154.172 65.1104C154.39 65.1899 154.621 65.2251 154.852 65.2137C155.301 65.2166 155.749 65.159 156.183 65.0423L156.1 65.677C155.676 65.8172 155.229 65.8796 154.783 65.8611C154.449 65.8872 154.113 65.8443 153.795 65.7352C153.478 65.626 153.187 65.4528 152.939 65.2264C152.733 65.0131 152.57 64.7607 152.461 64.484C152.353 64.2072 152.3 63.9116 152.306 63.6143C152.29 62.9811 152.494 62.362 152.882 61.8626C153.066 61.6255 153.303 61.4353 153.574 61.3073C153.844 61.1794 154.141 61.1174 154.441 61.1263C154.694 61.1096 154.947 61.1487 155.184 61.2408C155.42 61.3329 155.634 61.4758 155.809 61.6595C156.111 62.045 156.26 62.5288 156.227 63.0177ZM155.454 63.0177C155.454 62.1482 155.087 61.7102 154.358 61.7102C153.63 61.7102 153.174 62.1672 153.041 63.0748L155.454 63.0177Z" fill="#BFB6AD"/>
<path d="M160.11 61.3296L159.901 62.0658C159.688 61.9753 159.46 61.9257 159.229 61.9198C158.972 61.901 158.716 61.9752 158.508 62.1288C158.3 62.2824 158.154 62.5054 158.096 62.7576C158.096 64.1856 158.096 65.1821 158.096 65.7533H157.298C157.348 64.7696 157.374 64.0016 157.374 63.4621C157.375 62.7496 157.301 62.039 157.152 61.3423L157.969 61.228C158.013 61.4544 158.043 61.6833 158.058 61.9135H158.096C158.211 61.6996 158.38 61.519 158.585 61.389C158.79 61.259 159.025 61.1839 159.267 61.1709C159.555 61.1795 159.839 61.2331 160.11 61.3296Z" fill="#BFB6AD"/>
<path d="M163.632 64.4903C163.632 65.3979 163.056 65.8486 161.896 65.8486C161.415 65.856 160.935 65.8092 160.465 65.7089L160.611 65.0235C161.029 65.1846 161.474 65.2643 161.922 65.2583C162.599 65.2583 162.935 65.0679 162.935 64.6808C162.937 64.5935 162.918 64.507 162.878 64.4294C162.838 64.3518 162.779 64.2854 162.707 64.2365C162.475 64.0808 162.224 63.955 161.96 63.862C161.618 63.7425 161.296 63.5736 161.003 63.3606C160.869 63.2604 160.759 63.1303 160.683 62.9805C160.608 62.8308 160.567 62.6654 160.566 62.4974C160.565 62.3255 160.599 62.1552 160.668 61.9977C160.737 61.8402 160.838 61.699 160.965 61.5835C161.309 61.3039 161.747 61.1676 162.188 61.2027C162.614 61.1911 163.041 61.238 163.455 61.3423L163.315 62.0087C162.942 61.8705 162.547 61.8037 162.15 61.812C161.554 61.812 161.257 61.9833 161.257 62.3261C161.255 62.4079 161.272 62.4891 161.307 62.563C161.342 62.6369 161.395 62.7014 161.459 62.7513C161.702 62.9115 161.964 63.0415 162.238 63.1385C162.569 63.2562 162.882 63.4185 163.17 63.6208C163.308 63.7207 163.421 63.851 163.502 64.0017C163.582 64.1525 163.626 64.3196 163.632 64.4903Z" fill="#BFB6AD"/>
</svg>
