<svg width="16" height="16" viewBox="0 0 16 16" fill="none" xmlns="http://www.w3.org/2000/svg">
<path d="M10.6509 0H5.32724C4.38774 0.00106534 3.62642 0.762385 3.62549 1.70188V14.2982C3.62642 15.2377 4.38774 15.999 5.32724 16H10.6509C11.5904 15.999 12.3517 15.2377 12.3528 14.2982V1.70188C12.3517 0.762385 11.5904 0.00106534 10.6509 0V0ZM7.98912 14.5455C7.58736 14.5455 7.26176 14.2199 7.26176 13.8181C7.26176 13.4165 7.58736 13.0909 7.98912 13.0909C8.39076 13.0909 8.71635 13.4165 8.71635 13.8181C8.71635 14.2199 8.39076 14.5455 7.98912 14.5455ZM9.08003 2.18182H6.89822C6.6974 2.18182 6.53453 2.01895 6.53453 1.81814C6.53453 1.61732 6.6974 1.45459 6.89822 1.45459H9.08003C9.28085 1.45459 9.44358 1.61732 9.44358 1.81814C9.44358 2.01895 9.28085 2.18182 9.08003 2.18182Z" fill="#0084A9"/>
</svg>
