<svg width="16" height="16" viewBox="0 0 16 16" fill="none" xmlns="http://www.w3.org/2000/svg">
<path d="M6.99741 13.9978C10.862 13.9978 13.9949 10.8649 13.9949 7.00033C13.9949 3.13572 10.862 0.00289917 6.99741 0.00289917C3.1328 0.00289917 -5.14984e-05 3.13575 -5.14984e-05 7.00036C-5.14984e-05 10.865 3.13284 13.9978 6.99741 13.9978ZM6.99741 2.00218C9.75784 2.00218 11.9956 4.23993 11.9956 7.00036C11.9956 9.76079 9.75784 11.9985 6.99741 11.9985C4.23698 11.9985 1.99923 9.76079 1.99923 7.00036C1.99923 4.23993 4.23702 2.00218 6.99741 2.00218Z" fill="#2E3044"/>
<path d="M14.9944 15.9971C15.2602 15.9986 15.5155 15.8943 15.7042 15.7072C16.0962 15.3184 16.0988 14.6855 15.71 14.2935C15.708 14.2915 15.7061 14.2896 15.7042 14.2877L11.9456 10.5291C11.5398 10.1371 10.8931 10.1483 10.5011 10.5541C10.1091 10.9598 10.1203 11.6065 10.526 11.9985L14.2847 15.7072C14.4733 15.8943 14.7287 15.9986 14.9944 15.9971Z" fill="#2E3044"/>
</svg>
